<svg width="178" height="28" viewBox="0 0 178 28" fill="none" xmlns="http://www.w3.org/2000/svg">
<path d="M171.317 10.1521C171.965 9.0961 172.805 8.2681 173.837 7.6681C174.893 7.0681 176.093 6.7681 177.437 6.7681V12.0601H176.105C174.521 12.0601 173.321 12.4321 172.505 13.1761C171.713 13.9201 171.317 15.2161 171.317 17.0641V27.0001H166.277V7.0561H171.317V10.1521Z" fill="#F5993C"/>
<path d="M140.583 16.9561C140.583 14.9401 140.979 13.1521 141.771 11.5921C142.587 10.0321 143.679 8.83212 145.047 7.99212C146.439 7.15212 147.987 6.73212 149.691 6.73212C151.179 6.73212 152.475 7.03212 153.579 7.63212C154.707 8.23212 155.607 8.98812 156.279 9.90012V7.05612H161.355V27.0001H156.279V24.0841C155.631 25.0201 154.731 25.8001 153.579 26.4241C152.451 27.0241 151.143 27.3241 149.655 27.3241C147.975 27.3241 146.439 26.8921 145.047 26.0281C143.679 25.1641 142.587 23.9521 141.771 22.3921C140.979 20.8081 140.583 18.9961 140.583 16.9561ZM156.279 17.0281C156.279 15.8041 156.039 14.7601 155.559 13.8961C155.079 13.0081 154.431 12.3361 153.615 11.8801C152.799 11.4001 151.923 11.1601 150.987 11.1601C150.051 11.1601 149.187 11.3881 148.395 11.8441C147.603 12.3001 146.955 12.9721 146.451 13.8601C145.971 14.7241 145.731 15.7561 145.731 16.9561C145.731 18.1561 145.971 19.2121 146.451 20.1241C146.955 21.0121 147.603 21.6961 148.395 22.1761C149.211 22.6561 150.075 22.8961 150.987 22.8961C151.923 22.8961 152.799 22.6681 153.615 22.2121C154.431 21.7321 155.079 21.0601 155.559 20.1961C156.039 19.3081 156.279 18.2521 156.279 17.0281Z" fill="#F5993C"/>
<path d="M118.926 17.0281C118.926 14.9641 119.346 13.1641 120.186 11.6281C121.026 10.0681 122.19 8.86812 123.678 8.02812C125.166 7.16412 126.87 6.73212 128.79 6.73212C131.262 6.73212 133.302 7.35612 134.91 8.60412C136.542 9.82812 137.634 11.5561 138.186 13.7881H132.75C132.462 12.9241 131.97 12.2521 131.274 11.7721C130.602 11.2681 129.762 11.0161 128.754 11.0161C127.314 11.0161 126.174 11.5441 125.334 12.6001C124.494 13.6321 124.074 15.1081 124.074 17.0281C124.074 18.9241 124.494 20.4001 125.334 21.4561C126.174 22.4881 127.314 23.0041 128.754 23.0041C130.794 23.0041 132.126 22.0921 132.75 20.2681H138.186C137.634 22.4281 136.542 24.1441 134.91 25.4161C133.278 26.6881 131.238 27.3241 128.79 27.3241C126.87 27.3241 125.166 26.9041 123.678 26.0641C122.19 25.2001 121.026 24.0001 120.186 22.4641C119.346 20.9041 118.926 19.0921 118.926 17.0281Z" fill="#F5993C"/>
<path d="M107.474 6.7681C109.85 6.7681 111.77 7.5241 113.234 9.0361C114.698 10.5241 115.43 12.6121 115.43 15.3001V27.0001H110.39V15.9841C110.39 14.4001 109.994 13.1881 109.202 12.3481C108.41 11.4841 107.33 11.0521 105.962 11.0521C104.57 11.0521 103.466 11.4841 102.65 12.3481C101.858 13.1881 101.462 14.4001 101.462 15.9841V27.0001H96.4215V7.0561H101.462V9.5401C102.134 8.6761 102.986 8.0041 104.018 7.5241C105.074 7.0201 106.226 6.7681 107.474 6.7681Z" fill="#313131"/>
<path d="M92.7428 16.5961C92.7428 17.3161 92.6948 17.9641 92.5988 18.5401H78.0188C78.1388 19.9801 78.6428 21.1081 79.5308 21.9241C80.4188 22.7401 81.5108 23.1481 82.8068 23.1481C84.6788 23.1481 86.0108 22.3441 86.8028 20.7361H92.2388C91.6628 22.6561 90.5588 24.2401 88.9268 25.4881C87.2948 26.7121 85.2908 27.3241 82.9148 27.3241C80.9948 27.3241 79.2668 26.9041 77.7308 26.0641C76.2188 25.2001 75.0308 23.9881 74.1668 22.4281C73.3268 20.8681 72.9068 19.0681 72.9068 17.0281C72.9068 14.9641 73.3268 13.1521 74.1668 11.5921C75.0068 10.0321 76.1828 8.83212 77.6948 7.99212C79.2068 7.15212 80.9468 6.73212 82.9148 6.73212C84.8108 6.73212 86.5028 7.14012 87.9908 7.95612C89.5028 8.77212 90.6668 9.93612 91.4828 11.4481C92.3228 12.9361 92.7428 14.6521 92.7428 16.5961ZM87.5228 15.1561C87.4988 13.8601 87.0308 12.8281 86.1188 12.0601C85.2068 11.2681 84.0908 10.8721 82.7708 10.8721C81.5228 10.8721 80.4668 11.2561 79.6028 12.0241C78.7628 12.7681 78.2468 13.8121 78.0548 15.1561H87.5228Z" fill="#313131"/>
<path d="M60.968 22.3561L66.008 7.05609H71.372L63.992 27.0001H57.872L50.528 7.05609H55.928L60.968 22.3561Z" fill="#313131"/>
<path d="M26.9576 16.9561C26.9576 14.9401 27.3536 13.1521 28.1456 11.5921C28.9616 10.0321 30.0656 8.83211 31.4576 7.99211C32.8496 7.15211 34.3976 6.73211 36.1016 6.73211C37.3976 6.73211 38.6336 7.02011 39.8096 7.59611C40.9856 8.14811 41.9216 8.89211 42.6176 9.82811V0.360107H47.7296V27.0001H42.6176V24.0481C41.9936 25.0321 41.1176 25.8241 39.9896 26.4241C38.8616 27.0241 37.5536 27.3241 36.0656 27.3241C34.3856 27.3241 32.8496 26.8921 31.4576 26.0281C30.0656 25.1641 28.9616 23.9521 28.1456 22.3921C27.3536 20.8081 26.9576 18.9961 26.9576 16.9561ZM42.6536 17.0281C42.6536 15.8041 42.4136 14.7601 41.9336 13.8961C41.4536 13.0081 40.8056 12.3361 39.9896 11.8801C39.1736 11.4001 38.2976 11.1601 37.3616 11.1601C36.4256 11.1601 35.5616 11.3881 34.7696 11.8441C33.9776 12.3001 33.3296 12.9721 32.8256 13.8601C32.3456 14.7241 32.1056 15.7561 32.1056 16.9561C32.1056 18.1561 32.3456 19.2121 32.8256 20.1241C33.3296 21.0121 33.9776 21.6961 34.7696 22.1761C35.5856 22.6561 36.4496 22.8961 37.3616 22.8961C38.2976 22.8961 39.1736 22.6681 39.9896 22.2121C40.8056 21.7321 41.4536 21.0601 41.9336 20.1961C42.4136 19.3081 42.6536 18.2521 42.6536 17.0281Z" fill="#313131"/>
<path d="M17.892 22.2121H7.88404L6.22804 27.0001H0.936035L9.97204 1.83612H15.84L24.876 27.0001H19.548L17.892 22.2121ZM16.524 18.1801L12.888 7.66812L9.25204 18.1801H16.524Z" fill="#313131"/>
</svg>
